<svg xmlns="http://www.w3.org/2000/svg" width="283.752" height="282.228" viewBox="0 0 283.752 282.228"><defs><style>.a{fill:#f58634;}.a,.b,.c{fill-rule:evenodd;}.b{fill:#e6e7e8;}.c{fill:#373435;}</style></defs><g transform="translate(-2995.692 -2363)"><g transform="translate(2995.692 2363)"><path class="a" d="M3180,125.677c11.488,6.227,31.888,18.467,47.134,19.541l4.509-4.939c15.139,8.375,11.7,54.542,10.415,72.473-1.074,13.421-9.771,68.715-8.7,75.479,21.366,20.4,151.71,20.722,172.539,0,3.328-6.657-25.231-131.954,1.4-147.737l4.832,4.617c15.139-.322,35.431-13.636,46.919-19.541-4.509-22.44-25.338-66.031-46.275-78.378-10.2-5.905-43.269-20.722-52.824-22.762-4.4,12.777-22.118,27.056-41.014,26.734-17.931-.215-35.539-14.387-39.4-27.164-10.737,3.114-41.659,16.642-52.18,22.762C3205.339,59.538,3185.69,100.982,3180,125.677Z" transform="translate(-3177.716 -21.423)"/><path class="b" d="M4107,2.577c3.865,12.777,21.474,26.949,39.4,27.164,18.9.322,36.612-13.958,41.014-26.734L4179.258,0c-4.294,9.448-6.12,10.737-12.991,15.353-6.12,4.187-11.273,6.549-19.863,6.442-17.179-.322-25.875-10.415-31.566-21.8Z" transform="translate(-4005.187)"/><path class="c" d="M4244.42,0c-12.132,2.792-16.319,6.764-31.565,6.764C4196.964,6.871,4192.669,2.9,4180,0c5.69,11.381,14.387,21.473,31.566,21.8,8.589.107,13.743-2.255,19.863-6.442C4238.3,10.737,4240.125,9.448,4244.42,0Z" transform="translate(-4070.349)"/><path class="c" d="M5342,989.541l4.939,9.234c8.589.107,23.083-5.583,30.17-9.019,11.6-5.476,18.038-7.945,11.811-19.755C5377.431,975.905,5357.139,989.219,5342,989.541Z" transform="translate(-5107.589 -865.854)"/><path class="c" d="M3208.146,990.541c-15.246-1.074-35.646-13.313-47.134-19.541-5.905,10.951-.322,14.709,16.32,21.581C3207.61,1005.035,3202.993,998.486,3208.146,990.541Z" transform="translate(-3158.728 -866.747)"/><path class="b" d="M3890.807,66c0,.107-8.052,120.144-129.807,136.571,0,0,78.807,133.242,159.333,84.068h0c-5.476-40.155-12.025-98.241,5.583-108.655l4.832,4.617c15.139-.322,35.431-13.636,46.919-19.541-4.509-22.44-25.338-66.031-46.275-78.378C3923.983,80.387,3904.657,71.476,3890.807,66Z" transform="translate(-3696.336 -58.914)"/></g></g></svg>