<svg xmlns="http://www.w3.org/2000/svg" width="282.957" height="281.438" viewBox="0 0 282.957 281.438"><defs><style>.a{fill:#718fc8;}.a,.b,.c,.d{fill-rule:evenodd;}.b{fill:#e6e7e8;}.c,.d{fill:#373435;}.d{stroke:#373435;stroke-width:5.961px;}</style></defs><g transform="translate(-1158 -457.772)"><path class="a" d="M3459.373,125.392c-11.563,6.21-31.8,18.415-47,19.486l-4.5-4.925c-15.2,8.351-11.777,54.39-10.385,72.27,1.071,13.383,9.743,68.523,8.672,75.268-21.306,20.343-151.285,20.664-172.056,0-3.426-6.638,25.054-131.585-1.392-147.324l-4.818,4.6c-15.2-.321-35.439-13.6-46.9-19.486,4.6-22.377,25.268-65.846,46.253-78.159,10.064-5.889,43.041-20.664,52.677-22.7,4.283,12.741,21.949,26.981,40.9,26.66,17.88-.214,35.439-14.347,39.293-27.088,10.707,3.1,41.542,16.6,52.034,22.7C3434.105,59.439,3453.7,100.767,3459.373,125.392Z" transform="translate(-2020.648 436.342)"/><path class="b" d="M4185.193,2.57c-3.854,12.741-21.413,26.874-39.293,27.088-18.951.321-36.617-13.919-40.9-26.66l8.137-3c4.283,9.422,6.1,10.707,12.848,15.311,6.21,4.176,11.242,6.531,19.914,6.424,17.131-.321,25.7-10.385,31.371-21.735Z" transform="translate(-2845.718 457.772)"/><path class="c" d="M4181,0c11.991,2.784,16.274,6.745,31.37,6.745,15.953.107,20.129-3.854,32.763-6.745-5.675,11.349-14.24,21.413-31.37,21.735-8.673.107-13.705-2.248-19.915-6.424C4187.1,10.707,4185.283,9.422,4181,0Z" transform="translate(-2913.581 457.772)"/><path class="c" d="M3208.278,989.486l-5.032,9.208c-8.458.107-22.913-5.568-30.086-8.994-11.456-5.46-17.88-7.923-11.777-19.7C3172.839,975.889,3193.075,989.165,3208.278,989.486Z" transform="translate(-2001.031 -408.373)"/><path class="c" d="M5342,990.486c15.2-1.071,35.439-13.276,47-19.486,5.782,10.921.321,14.668-16.274,21.52C5342.535,1004.94,5347.032,998.409,5342,990.486Z" transform="translate(-3950.277 -409.266)"/><path class="d" d="M3572.453,257c.107.1,102.356,68.884,192.292.778h0c.107.292,13.918,51.079-8.886,81.921h-.107l-.107.1c-4.6,2.432-78.158,41.058-174.947.1C3565.065,306.133,3572.453,257,3572.453,257Z" transform="translate(-2368.632 238.497)"/></g></svg>