<svg xmlns="http://www.w3.org/2000/svg" width="282.957" height="281.438" viewBox="0 0 282.957 281.438"><defs><style>.a{fill:#00a859;}.a,.b,.c{fill-rule:evenodd;}.b{fill:#fff212;}.c{fill:#373435;}</style></defs><g transform="translate(-9129.303 -2294)"><g transform="translate(9129.303 2294)"><path class="a" d="M3459.373,125.392c-11.563,6.21-31.8,18.415-47,19.486l-4.5-4.925c-15.2,8.351-11.777,54.39-10.385,72.27,1.071,13.383,9.743,68.523,8.672,75.268-21.306,20.343-151.285,20.664-172.056,0-3.427-6.638,25.053-131.585-1.392-147.324l-4.818,4.6c-15.2-.321-35.439-13.6-46.9-19.486,4.6-22.377,25.268-65.846,46.252-78.159,10.064-5.889,43.041-20.664,52.677-22.7,4.282,12.741,21.948,26.981,40.9,26.66,17.88-.214,35.439-14.347,39.293-27.088,10.707,3.1,41.542,16.6,52.034,22.7C3434.105,59.439,3453.7,100.767,3459.373,125.392Z" transform="translate(-3178.648 -21.43)"/><path class="b" d="M4185.193,2.57c-3.854,12.741-21.413,26.874-39.293,27.088-18.951.321-36.617-13.919-40.9-26.66l8.137-3c4.283,9.422,6.1,10.707,12.848,15.311,6.209,4.176,11.241,6.531,19.914,6.424,17.13-.321,25.7-10.385,31.37-21.735Z" transform="translate(-4003.719)"/><path class="c" d="M4181,0c11.992,2.784,16.274,6.745,31.371,6.745,15.953.107,20.128-3.854,32.763-6.745-5.675,11.349-14.24,21.413-31.371,21.735-8.672.107-13.7-2.248-19.914-6.424C4187.1,10.707,4185.283,9.422,4181,0Z" transform="translate(-4071.582)"/><path class="c" d="M3208.279,989.486l-5.032,9.208c-8.458.107-22.912-5.567-30.086-8.994-11.456-5.46-17.88-7.923-11.777-19.7C3172.84,975.889,3193.075,989.165,3208.279,989.486Z" transform="translate(-3159.031 -866.145)"/><path class="c" d="M5342,990.486c15.2-1.071,35.439-13.276,47-19.486,5.781,10.921.32,14.668-16.274,21.52C5342.535,1004.94,5347.032,998.409,5342,990.486Z" transform="translate(-5108.277 -867.038)"/><path class="b" d="M3530.026,269.2c.107,1.713.107,3.319.107,5.032a139.667,139.667,0,0,1-.75,15.1A213.505,213.505,0,0,1,3506.15,300.9l.642-3.212c-.856,1.392-1.82,2.677-2.783,4.069a57.147,57.147,0,0,1-15.739,3.854l-4.5-4.925c-7.6,4.176-10.493,17.666-11.349,32.334a129.07,129.07,0,0,1-152.891-3.1c-1.071-14.24-4.282-25.054-10.921-29.015l-4.818,4.6a44.921,44.921,0,0,1-10.172-1.713c-1.392-2.034-2.89-3.961-4.282-6.1.428,1.713.749,3.426,1.178,5.032-8.03-2.784-16.382-7.281-23.448-11.242A129.634,129.634,0,0,1,3266,274.236a159.392,159.392,0,0,1,1.071-17.559c9.1-19.914,22.591-40.9,36.082-48.822,1.82-1.071,4.283-2.355,7.173-3.854a124.218,124.218,0,0,0-11.135,18.094c18.416,37.045,55.782,62.42,98.929,62.42,43.041,0,80.407-25.375,98.822-62.42a121.412,121.412,0,0,0-8.458-14.454C3505.722,218.026,3521.461,245.863,3530.026,269.2ZM3474.78,385.157a128.806,128.806,0,0,1-157.281-2.891c.963-8.994,1.82-18.094,2.141-26.874a108.684,108.684,0,0,0,152.891,3.854c.214,5.353.643,10.064.857,13.7C3473.6,375.521,3474.137,379.91,3474.78,385.157Zm30.835-136.082c-23.983,34.582-63.169,57.066-107.495,57.066s-83.619-22.484-107.6-57.066c12.419,49.358,55.888,85.76,107.6,85.76S3493.3,298.433,3505.615,249.075Z" transform="translate(-3254.547 -182.158)"/></g></g></svg>