<svg xmlns="http://www.w3.org/2000/svg" width="283.752" height="282.228" viewBox="0 0 283.752 282.228"><defs><style>.a{fill:#00afef;}.a,.b,.c{fill-rule:evenodd;}.b{fill:#fefefe;}.c{fill:#373435;}</style></defs><g transform="translate(-2436.422 -2363)"><path class="a" d="M21,125.677c11.488,6.227,31.888,18.467,47.134,19.541l4.509-4.939c15.139,8.375,11.7,54.542,10.415,72.473-1.074,13.421-9.77,68.715-8.7,75.479,21.366,20.4,151.71,20.722,172.539,0,3.328-6.657-25.231-131.954,1.4-147.737l4.831,4.617c15.139-.322,35.431-13.636,46.919-19.541-4.509-22.44-25.339-66.031-46.275-78.378-10.2-5.905-43.269-20.722-52.825-22.762-4.4,12.777-22.118,27.056-41.014,26.734C142,50.949,124.394,36.777,120.529,24c-10.737,3.114-41.658,16.642-52.18,22.762C46.339,59.538,26.69,100.982,21,125.677Z" transform="translate(2417.706 2341.577)"/><path class="b" d="M948,2.577c3.865,12.777,21.473,26.949,39.4,27.164,18.9.322,36.612-13.958,41.014-26.734L1020.258,0c-4.295,9.448-6.12,10.737-12.991,15.353-6.12,4.187-11.274,6.549-19.863,6.442-17.179-.322-25.875-10.415-31.566-21.8Z" transform="translate(1590.235 2363)"/><path class="c" d="M1085.42,0c-12.132,2.792-16.32,6.764-31.566,6.764C1037.964,6.871,1033.669,2.9,1021,0c5.69,11.381,14.387,21.473,31.566,21.8,8.589.107,13.743-2.255,19.863-6.442C1079.3,10.737,1081.126,9.448,1085.42,0Z" transform="translate(1525.073 2363)"/><path class="c" d="M2183,989.541l4.939,9.234c8.589.107,23.084-5.583,30.17-9.019,11.6-5.476,18.038-7.945,11.811-19.755C2218.431,975.905,2198.139,989.219,2183,989.541Z" transform="translate(487.833 1497.146)"/><path class="c" d="M49.146,990.541C33.9,989.467,13.5,977.227,2.012,971c-5.905,10.951-.322,14.709,16.32,21.581C48.609,1005.035,43.993,998.486,49.146,990.541Z" transform="translate(2436.693 1496.253)"/><path class="b" d="M567,1190h17.071v18.252h18.252V1190h18.252v18.252h18.252V1190h18.252v18.252h18.252V1190h18.145v18.252h18.252V1190H728.8c-2.04,4.724-3.221,11.059-3.973,18.252h-13.1V1226.4H693.478v-18.145H675.333V1226.4H657.081v-18.145H638.829V1226.4H620.576v-18.145H602.324V1226.4H584.071v-18.145h-13.1A64.743,64.743,0,0,0,567,1190Z" transform="translate(1930.328 1300.767)"/></g></svg>