<svg xmlns="http://www.w3.org/2000/svg" width="282.958" height="281.438" viewBox="0 0 282.958 281.438"><defs><style>.a{fill:#5cc6d0;}.a,.b,.c{fill-rule:evenodd;}.b{fill:#d2e28b;}.c{fill:#fefefe;}</style></defs><g transform="translate(0.272)"><path class="a" d="M21,125.392c11.456,6.21,31.8,18.415,47,19.486l4.5-4.925c15.1,8.351,11.67,54.39,10.385,72.27-1.071,13.383-9.743,68.523-8.672,75.268,21.306,20.343,151.285,20.664,172.056,0,3.319-6.638-25.161-131.585,1.392-147.324l4.818,4.6c15.1-.321,35.332-13.6,46.788-19.486-4.5-22.377-25.268-65.846-46.146-78.159-10.171-5.889-43.148-20.664-52.677-22.7-4.39,12.741-22.056,26.981-40.9,26.66-17.88-.214-35.439-14.347-39.293-27.088-10.707,3.1-41.542,16.6-52.034,22.7C46.268,59.439,26.675,100.767,21,125.392Z" transform="translate(-18.994 -21.43)"/><path class="b" d="M948,2.57c3.854,12.741,21.413,26.874,39.293,27.088,18.844.321,36.51-13.919,40.9-26.66l-8.137-3c-4.283,9.422-6.1,10.707-12.955,15.311-6.1,4.176-11.242,6.531-19.807,6.424C970.163,21.413,961.49,11.349,955.816,0Z" transform="translate(-846.744)"/><path class="a" d="M1085.24,0c-12.1,2.784-16.274,6.745-31.478,6.745C1037.917,6.852,1033.634,2.891,1021,0c5.674,11.349,14.347,21.413,31.478,21.735,8.565.107,13.7-2.248,19.807-6.424C1079.137,10.707,1080.957,9.422,1085.24,0Z" transform="translate(-911.928)"/><path class="a" d="M2183,989.486l4.925,9.208c8.565.107,23.019-5.567,30.086-8.994,11.563-5.46,17.987-7.923,11.777-19.7C2218.332,975.889,2198.1,989.165,2183,989.486Z" transform="translate(-1949.516 -866.145)"/><path class="a" d="M49.008,990.486c-15.2-1.071-35.546-13.276-47-19.486-5.889,10.921-.321,14.668,16.274,21.52C48.473,1004.94,43.869,998.409,49.008,990.486Z" transform="translate(0 -867.038)"/><path class="b" d="M72.5,308.717s-25.161-50.107-4.39-93.255C46.161,228.311,26.675,269.531,21,294.156c11.456,6.21,31.8,18.415,47,19.486l4.5-4.925ZM247.767,213l.321.428s15.846,51.392-.964,95.5v.214c.214,0,.321-.214.535-.214l4.818,4.6c15.1-.321,35.332-13.6,46.788-19.486-4.5-22.377-25.268-65.846-46.146-78.159C251.728,215.034,249.908,214.071,247.767,213Z" transform="translate(-18.994 -190.195)"/><path class="c" d="M628.152,1526c48.18,0,87.152,37.152,87.152,82.977a78.738,78.738,0,0,1-7.281,33.191c-9.1.964-18.844,1.5-28.8,1.713a57.256,57.256,0,0,0,11.884-34.9c0-33.083-28.158-59.85-62.955-59.85A65.04,65.04,0,0,0,591,1560.69c.428-3,.642-5.568.857-7.281.321-5.032.857-12.312,1.178-20.343A90.583,90.583,0,0,1,628.152,1526Z" transform="translate(-527.966 -1362.617)"/><path class="c" d="M1329.475,176.073c-47.109-2.784-84.475-40.9-84.475-87.58a85.369,85.369,0,0,1,6.959-33.833h.535c18.844.321,36.51-13.919,40.9-26.66a70.664,70.664,0,0,1,10.385,3.426c-20.985,10.921-35.225,32.334-35.225,57.066,0,35.332,28.908,64.026,64.882,64.775C1331.081,159.156,1329.9,167.079,1329.475,176.073Z" transform="translate(-1111.945 -25.002)"/></g></svg>